<svg id="SvgjsSvg1001" width="288" height="288" xmlns="http://www.w3.org/2000/svg" version="1.1" xmlns:xlink="http://www.w3.org/1999/xlink" xmlns:svgjs="http://svgjs.com/svgjs"><defs id="SvgjsDefs1002"></defs><g id="SvgjsG1008" transform="matrix(1,0,0,1,0,0)"><svg xmlns="http://www.w3.org/2000/svg" width="288" height="288" version="1.0" viewBox="0 0 226 100"><g transform="matrix(.1 0 0 -.1 0 100)" fill="#ffffff" class="color000 svgShape"><path d="M467 993 c-20 -32 -30 -114 -28 -224 l2 -127 -143 -4 c-108 -3 -151-8 -174 -20 -39 -21 -92 -81 -100 -112 -9 -38 1 -188 16 -222 12 -28 11 -41
-13 -126 -15 -51 -27 -108 -27 -126 l0 -32 213 0 c208 0 214 1 264 25 54 27
76 53 98 113 13 36 14 35 14 -50 l1 -88 90 0 90 0 0 85 0 86 73 -3 72 -3 3
-82 3 -83 89 0 90 0 1 113 c1 84 3 104 10 81 19 -65 71 -127 133 -159 53 -27
69 -30 150 -30 80 0 98 4 148 28 104 51 148 131 148 269 l0 78 85 0 85 0 0
-190 0 -190 95 0 95 0 0 190 0 190 78 0 78 0 27 95 c15 52 27 111 27 130 l0
35 -267 0 -268 0 32 20 c47 28 66 73 67 155 1 82 -20 126 -74 163 -31 21 -44
22 -138 20 l-105 -3 -13 -45 c-8 -25 -14 -93 -14 -155 l-1 -110 -75 154 c-41
85 -76 156 -77 157 -2 2 -25 -3 -51 -9 l-49 -13 -58 -114 c-32 -63 -58 -107
-58 -97 -1 10 -9 17 -21 17 -27 0 -27 47 0 125 35 101 44 95 -145 95 l-165 0
0 -52 0 -53 -20 33 c-36 58 -72 72 -187 72 -56 0 -104 -3 -106 -7z m251 -47
c36 -34 37 -36 37 -109 0 -66 -3 -79 -24 -101 -34 -36 -82 -48 -181 -44 l-85
3 -3 92 c-3 85 -1 92 18 97 66 19 60 24 60 -53 l0 -71 48 0 c67 0 92 20 92 75
0 66 -14 75 -125 75 l-93 0 11 35 10 35 99 0 c98 0 98 0 136 -34z m362 25 c0
-5 -4 -21 -10 -35 -9 -25 -12 -26 -100 -26 -82 0 -91 -2 -88 -17 3 -15 16 -18
86 -21 l83 -3 -3 -32 -3 -32 -82 -3 c-65 -2 -83 -6 -83 -17 0 -12 19 -15 100
-15 55 0 100 -4 100 -9 0 -5 -4 -21 -10 -35 l-10 -26 -130 0 -130 0 0 140 0
140 140 0 c80 0 140 -4 140 -9z m303 -128 l67 -138 -37 -3 c-25 -2 -41 2 -49
12 -8 12 -28 16 -73 16 -64 0 -68 4 -49 45 9 19 19 25 45 25 18 0 33 2 33 5 0
10 -34 75 -40 75 -3 0 -25 -40 -47 -90 l-41 -90 -41 0 -42 0 68 132 c68 132
77 142 129 147 6 1 41 -61 77 -136z m358 120 c39 -23 59 -70 59 -137 0 -50 -4
-60 -34 -94 l-34 -37 -114 0 -113 0 -3 86 c-3 92 1 101 51 113 l27 6 0 -70 0
-70 53 0 c68 0 92 22 91 83 -2 57 -20 67 -126 67 -92 0 -94 1 -82 48 6 21 11
22 101 22 72 0 102 -4 124 -17z m-1084 -129 c11 -28 -11 -49 -56 -52 -41 -3
-41 -3 -41 32 0 36 0 36 45 36 33 0 47 -5 52 -16z m1040 0 c11 -29 -11 -49
-53 -49 -37 0 -39 2 -42 33 -3 32 -3 32 43 32 33 0 47 -4 52 -16z m-706 -194
c177 0 211 2 215 15 8 21 139 22 147 1 7 -18 -1 -26 -27 -26 -35 0 -119 -45
-154 -82 -18 -19 -41 -57 -52 -84 l-19 -49 -1 98 0 97 -90 0 -89 0 -3 -92 -3
-93 -72 -3 -73 -3 0 106 c0 77 -3 105 -12 105 -7 0 -42 -9 -78 -20 -83 -25
-90 -25 -90 5 0 23 4 25 48 25 58 0 104 26 123 70 l14 31 3 -51 3 -50 210 0z
m698 -107 c0 -103 -1 -106 -14 -71 -28 77 -81 125 -175 160 l-45 16 118 1 117
1 -1 -107z m521 60 c0 -10 -6 -38 -14 -63 l-13 -45 -82 -3 -81 -3 0 -184 0
-185 -65 0 -65 0 0 185 0 185 -80 0 -80 0 0 58 c0 32 3 62 7 65 3 4 111 7 240
7 215 0 233 -1 233 -17z m-1670 -1 c0 -5 -7 -32 -15 -60 l-16 -52 -153 0
c-159 0 -184 -6 -170 -43 8 -22 36 -27 149 -27 121 0 158 -15 193 -81 28 -53
26 -112 -7 -158 -42 -59 -66 -65 -280 -69 l-194 -4 6 30 c4 17 13 47 21 66
l15 36 159 0 c133 0 161 3 166 15 14 37 -2 43 -128 47 -133 4 -169 16 -210 71
-30 40 -29 130 1 173 41 57 67 64 276 64 103 0 187 -4 187 -8z m961 -7 c59
-21 105 -59 131 -108 32 -60 32 -194 0 -254 -41 -78 -129 -123 -242 -123 -190
0 -300 152 -244 339 19 64 74 122 135 144 57 20 165 21 220 2z m-761 -100 l0
-106 103 3 102 3 3 98 3 98 57 -3 57 -3 3 -237 2 -238 -60 0 -60 0 0 85 0 85
-105 0 -105 0 0 -85 0 -85 -60 0 -60 0 0 229 0 228 53 16 c28 8 55 16 60 16 4
1 7 -46 7 -104z m-151 -77 c0 -135 -1 -140 -14 -100 -7 23 -19 49 -25 57 -7 9
-10 27 -6 45 9 47 37 140 42 140 2 0 4 -64 3 -142z" fill="#ffffff" class="color000 svgShape"></path><path d="M1311 466c-35-19-50-54-51-113 0-97 36-133 135-133 62 0 108 19 126 51 14 26 13 132-1 159-6 11-24 27-40 35-36 18-136 19-169 1zm161-98c49-25 24-102-37-114-97-18-175 41-132 100 23 32 120 40 169 14zM16 793c-3-16-8-38-12-51l-6-22 203 2 204 3 3 48 3 47-194 0-194 0-7-27zm372-15l3-28-180 0c-190 0-192 0-175 44 6 14 28 16 178 14l171-3 3-27zM1852 773l3-48 188-3 187-2 10 25c5 14 13 37 16 50l6 25-206 0-207 0 3-47zm376 10l-3-28-177-3-178-2 0 23c0 13 3 27 7 30 3 4 85 7 180 7l174 0-3-27z" fill="#ffffff" class="color000 svgShape"></path></g></svg></g></svg>