<svg id="SvgjsSvg1001" width="288" height="288" xmlns="http://www.w3.org/2000/svg" version="1.1" xmlns:xlink="http://www.w3.org/1999/xlink" xmlns:svgjs="http://svgjs.com/svgjs"><defs id="SvgjsDefs1002"></defs><g id="SvgjsG1008" transform="matrix(1,0,0,1,0,0)"><svg xmlns="http://www.w3.org/2000/svg" xmlns:svgjs="http://svgjs.com/svgjs" xmlns:xlink="http://www.w3.org/1999/xlink" width="288" height="288"><svg xmlns="http://www.w3.org/2000/svg" width="288" height="288" version="1.0" viewBox="0 0 2330 1031"><g fill="#000000" class="color000 svgShape colorfff" transform="matrix(.1 0 0 -.1 0 1031)"><path d="M4643 9743 l-171 -568 0 -197 0 -198 44 0 44 0 0 -1099 0 -1100-1252 -4 c-1321 -4 -1313 -4 -1558 -53 -873 -174 -1495 -845 -1589 -1716 -14-126 -14 -979 0 -1106 35 -329 162 -664 349 -923 38 -52 64 -98 60 -104 -4 -5
-134 -451 -289 -991 l-281 -981 0 -352 0 -351 2059 0 c2215 0 2140 -2 2391 51
783 162 1369 743 1525 1511 35 173 45 342 45 738 0 523 -21 720 -105 975 -71
215 -218 481 -349 633 -25 30 -46 57 -46 60 0 4 120 427 267 941 l268 933 3
-2921 2 -2921 950 0 950 0 0 875 0 875 735 0 735 0 0 -875 0 -875 955 0 955 0
1 1288 c1 1142 3 1275 15 1182 46 -353 135 -652 283 -955 347 -708 980 -1204
1801 -1410 325 -82 497 -100 935 -100 391 0 519 12 810 71 1329 269 2156 1205
2265 2564 7 83 10 353 8 698 l-3 562 848 0 847 0 0 -1950 0 -1950 990 0 990 0
0 1950 0 1950 808 0 807 0 278 988 278 987 -1 353 0 352 -2832 1 c-2430 1
-2824 3 -2770 15 631 138 1061 698 1123 1461 16 199 6 722 -16 863 -105 672
-476 1156 -1015 1328 -192 61 -209 62 -1276 62 l-969 0 -170 -563 -170 -562 0
-202 -1 -203 48 0 48 0 0 -892 c0 -490 -2 -889 -4 -887 -2 2 -369 747 -816
1654 -447 908 -815 1652 -817 1654 -3 4 -1005 -257 -1009 -262 0 -1 -279 -550
-619 -1220 -340 -669 -620 -1215 -623 -1213 -2 3 1 19 7 37 7 19 11 112 11
235 l0 204 -200 0 -200 0 0 345 0 345 29 0 c35 0 10 -71 216 610 l155 516 0
202 0 202 -1675 0 -1675 0 -1 -702 c-1 -615 -3 -694 -14 -631 -50 273 -143
509 -286 723 -78 118 -264 307 -373 380 -104 69 -259 143 -371 175 -188 54
-200 55 -1251 55 l-971 0 -170 -567z m6487 357 c0 -20 -180 -621 -200 -667
l-10 -23 -925 0 -925 0 0 -205 0 -205 870 0 870 0 0 -350 0 -350 -870 0 -870
0 0 -205 0 -205 1031 0 1031 0 -7 -27 c-3 -16 -50 -172 -103 -348 l-97 -320
-1313 -3 -1312 -2 0 1465 0 1465 1415 0 1415 0 0 -20z m2560 -292 c79 -161
399 -812 712 -1447 312 -634 568 -1155 568 -1157 0 -2 -183 -4 -406 -4 l-406
0 -86 180 -87 180 -667 0 c-367 0 -669 3 -671 8 -3 4 59 151 137 327 l141 320
368 3 c206 1 367 6 365 11 -2 5 -106 221 -233 481 -157 323 -232 468 -238 459
-4 -8 -217 -453 -471 -989 l-463 -975 -407 -3 c-223 -1 -406 1 -406 4 0 6 481
955 1212 2394 83 162 154 300 160 305 9 11 678 192 714 194 17 1 43 -44 164
-291z m-6860 267 c240 -39 437 -140 611 -314 104 -105 174 -202 244 -342 275
-546 247 -1255 -69 -1728 -154 -231 -342 -377 -594 -461 -179 -59 -209 -61
-1272 -58 l-965 3 -3 942 -2 942 52 15 c85 24 721 196 725 196 1 0 3 -315 3
-700 l0 -701 548 3 547 3 65 31 c86 41 138 89 198 178 142 212 188 556 116
856 -41 167 -152 333 -264 394 -105 57 -77 56 -1077 56 -508 0 -923 2 -923 4
0 4 197 662 205 684 3 9 189 12 882 12 742 0 893 -2 973 -15z m10706 4 c454
-63 815 -391 978 -891 73 -222 107 -503 87 -724 -22 -244 -72 -430 -171 -629
-183 -370 -481 -591 -872 -649 -90 -14 -247 -16 -1072 -16 l-966 0 2 947 3
947 375 102 c206 56 378 99 383 97 4 -2 7 -317 7 -699 l0 -695 548 3 547 3 69
33 c144 68 253 225 313 448 23 89 26 117 27 284 0 160 -3 197 -22 273 -42 169
-116 304 -205 378 -46 38 -122 75 -177 88 -29 7 -373 11 -969 11 -734 0 -922
3 -918 13 2 6 37 120 76 252 40 132 86 284 102 338 l30 97 874 0 c567 0 901
-4 951 -11z m-10867 -1332 c55 -37 112 -126 140 -221 l23 -77 -22 -72 c-44
-147 -124 -253 -206 -276 -25 -7 -183 -11 -431 -11 l-393 0 0 345 0 346 423
-3 423 -3 43 -28z m10706 14 c71 -32 135 -123 170 -245 16 -54 16 -62 1 -123
-22 -87 -76 -190 -123 -235 -71 -68 -67 -68 -513 -68 l-400 0 0 345 0 345 413
0 c377 0 415 -2 452 -19z m-7138 -2199 l2156 3 86 183 86 182 637 0 637 0 89
-182 88 -183 -135 -17 c-1046 -133 -1831 -656 -2241 -1493 -148 -301 -240
-610 -284 -951 -12 -98 -14 8 -15 1054 l-1 1162 -955 0 -955 0 0 -1000 0
-1000 -735 0 -735 0 -2 1128 -3 1129 -925 -269 c-509 -147 -934 -271 -945
-274 -21 -5 -21 -2 -21 260 l0 266 312 0 c345 0 470 9 621 45 367 88 664 317
866 670 90 157 182 425 204 593 5 31 9 -250 11 -626 l2 -682 2157 2z m7212
-1284 c-1 -1121 -3 -1270 -15 -1178 -173 1357 -1094 2252 -2510 2440 l-139 18
1333 1 1332 1 -1 -1282z m5365 925 c-3 -16 -81 -291 -172 -613 l-167 -585
-852 -3 -853 -2 0 -1950 0 -1950 -627 2 -628 3 -3 1947 -2 1948 -848 2 -847 3
-3 613 -2 612 2505 0 2505 0 -6 -27z m-17244 0 c0 -15 -192 -689 -309 -1083
l-37 -125 -1534 -5 -1535 -5 -55 -22 c-79 -33 -150 -90 -188 -153 -41 -69 -52
-109 -52 -187 0 -189 143 -327 365 -353 55 -6 435 -10 980 -10 560 0 922 -4
975 -10 681 -85 1189 -483 1390 -1088 58 -176 74 -284 74 -502 0 -154 -4 -203
-23 -290 -158 -739 -717 -1205 -1525 -1270 -82 -6 -758 -10 -1868 -10 l-1740
0 7 27 c3 16 82 291 174 613 l169 585 1593 5 1594 5 56 23 c162 65 240 171
241 327 0 104 -30 175 -106 251 -70 69 -135 99 -250 114 -39 5 -477 10 -973
10 -991 0 -1022 2 -1261 61 -535 132 -931 472 -1113 954 -180 478 -119 1022
162 1446 86 130 282 324 414 412 231 153 531 255 835 286 47 4 862 9 1813 10
1623 1 1727 0 1727 -16z m9255 -27 c258 -34 430 -72 634 -138 957 -309 1526
-1029 1637 -2068 22 -204 22 -550 0 -730 -94 -776 -427 -1357 -996 -1740 -359
-241 -794 -390 -1325 -452 -175 -21 -688 -17 -855 5 -617 84 -1089 288 -1486
644 -162 145 -348 387 -463 603 -259 489 -355 1152 -261 1802 122 836 586
1481 1312 1822 312 147 623 226 1063 270 94 9 635 -3 740 -18z m-7205 -1156
l0 -1070 1080 0 1080 0 0 1000 0 1000 605 0 605 0 0 -2460 0 -2460 -605 0
-605 0 0 870 0 870 -1080 0 -1080 0 0 -870 0 -870 -610 0 -610 0 2 2356 3
2356 595 174 c327 95 601 173 608 173 9 1 12 -219 12 -1069z" class="color000 svgShape" fill="#000000"></path><path d="M14115 4984c-124-13-305-51-409-85-500-164-731-530-753-1194-17-523 90-891 327-1126 124-122 287-213 481-267 412-116 1016-102 1370 31 339 128 554 374 649 742 44 172 55 276 54 535 0 238-12 363-51 515-105 417-361 677-776 790-181 48-263 57-567 60-157 2-303 1-325-1zm660-1047c374-68 567-216 660-507 38-116 37-180-4-300-44-129-82-193-165-275-182-181-474-255-946-242-410 11-643 81-806 242-54 53-81 90-113 155-42 87-81 218-81 275 0 57 39 188 82 275 109 223 336 347 713 390 117 13 563 4 660-13zM261 8468c-5-13-65-212-135-444-119-396-126-426-126-506l0-85 61-7c34-3 977-6 2095-6l2034 0 0 535 0 535-1960 0-1960 0-9-22zm3729-438l0-290-1875 0c-1031 0-1875 3-1875 8 0 4 29 102 64 217 35 116 73 243 85 283l22 72 1789 0 1790 0 0-290zM19110 7955l0-535 1961 2 1961 3 134 444c129 425 134 447 134 532l0 89-2095 0-2095 0 0-535zm3946 348c-51-177-161-532-168-545-8-17-104-18-1793-18l-1785 0 0 290 0 290 1876 0c1781 0 1875-1 1870-17z" class="color000 svgShape" fill="#000000"></path></g></svg></svg></g></svg>